<?xml version="1.0" standalone="no"?>
<!DOCTYPE svg PUBLIC "-//W3C//DTD SVG 20010904//EN"
 "http://www.w3.org/TR/2001/REC-SVG-20010904/DTD/svg10.dtd">
<svg version="1.0" xmlns="http://www.w3.org/2000/svg"
 width="96.000000pt" height="96.000000pt" viewBox="0 0 96.000000 96.000000"
 preserveAspectRatio="xMidYMid meet">
<metadata>
Created by potrace 1.14, written by Peter Selinger 2001-2017
</metadata>
<g transform="translate(0.000000,96.000000) scale(0.100000,-0.100000)"
fill="#000000" stroke="none">
<path d="M580 868 c-58 -29 -81 -73 -83 -157 -1 -86 14 -122 65 -157 34 -24
50 -28 126 -30 99 -3 145 8 184 43 40 38 51 74 46 153 -4 78 -23 112 -79 145
-49 29 -204 30 -259 3z m231 -61 c26 -20 39 -53 39 -102 0 -92 -27 -114 -140
-115 -125 0 -154 30 -140 143 10 74 31 87 139 87 52 -1 92 -5 102 -13z"/>
<path d="M75 855 c-28 -27 -27 -23 -29 -153 -2 -106 11 -147 49 -162 40 -15
320 -13 332 3 15 19 10 177 -6 186 -7 5 -64 8 -126 9 -105 0 -114 -2 -118 -20
-11 -42 0 -48 94 -48 52 0 90 -4 90 -10 1 -5 2 -22 3 -37 l1 -28 -114 -3 c-67
-2 -118 1 -124 7 -14 14 -16 200 -2 209 5 4 75 7 155 8 l145 1 3 31 3 32 -166
0 c-163 0 -166 0 -190 -25z"/>
<path d="M60 401 c-20 -14 -23 -327 -2 -347 10 -11 51 -14 167 -14 163 0 194
7 215 46 18 33 6 101 -23 133 -21 23 -23 29 -11 51 20 38 17 76 -10 107 l-24
28 -149 3 c-83 1 -154 -2 -163 -7z m280 -91 c0 -40 -23 -50 -113 -50 -78 0
-89 -7 -79 -52 3 -16 16 -18 98 -18 79 0 97 -3 113 -19 11 -11 18 -28 17 -38
-3 -16 -16 -18 -129 -21 l-127 -3 0 116 0 115 110 0 110 0 0 -30z"/>
<path d="M570 399 c-49 -18 -58 -50 -57 -212 l0 -148 36 3 36 3 2 130 c1 72 2
138 3 148 0 15 12 17 108 17 125 0 143 -8 147 -65 4 -63 -17 -75 -129 -75 -87
0 -94 -2 -99 -21 -12 -44 -1 -49 100 -49 109 0 155 16 184 64 40 65 14 166
-51 198 -27 14 -59 18 -145 17 -60 0 -121 -5 -135 -10z"/>
</g>
</svg>
